<?xml version="1.0" encoding="UTF-8"?><svg xmlns="http://www.w3.org/2000/svg" xmlns:xlink="http://www.w3.org/1999/xlink" width="375pt" zoomAndPan="magnify" viewBox="0 0 375 374.999991" height="374.999991pt" preserveAspectRatio="xMidYMid meet" version="1.2"><defs><g/></defs><g xml:id="surface1" id="surface1"><rect x="0" width="375" y="0" height="374.999991" style="fill:rgb(100%,100%,100%);fill-opacity:1;stroke:none;"/><rect x="0" width="375" y="0" height="374.999991" style="fill:rgb(100%,100%,100%);fill-opacity:1;stroke:none;"/><rect x="0" width="375" y="0" height="374.999991" style="fill:rgb(100%,100%,100%);fill-opacity:1;stroke:none;"/><g style="fill:rgb(0%,50.19989%,21.569824%);fill-opacity:1;"><g transform="translate(48.946472, 268.795655)"><path style="stroke:none;" d="M 72.40625 -87.90625 C 71.019531 -86.707031 68.785156 -84.765625 65.703125 -82.078125 C 62.617188 -79.398438 59.140625 -76.722656 55.265625 -74.046875 C 51.398438 -71.367188 47.332031 -69.234375 43.0625 -67.640625 C 38.789062 -66.046875 34.765625 -65.847656 30.984375 -67.046875 C 29.398438 -67.640625 28.160156 -68.53125 27.265625 -69.71875 C 26.367188 -70.914062 25.769531 -72.257812 25.46875 -73.75 C 25.175781 -75.238281 25.078125 -76.773438 25.171875 -78.359375 C 25.273438 -79.953125 25.523438 -81.445312 25.921875 -82.84375 L 80.15625 -113.828125 L 80.15625 -201.734375 C 80.15625 -203.515625 81.242188 -204.851562 83.421875 -205.75 C 85.609375 -206.644531 87.992188 -207.09375 90.578125 -207.09375 C 93.160156 -207.09375 95.546875 -206.644531 97.734375 -205.75 C 99.921875 -204.851562 101.015625 -203.515625 101.015625 -201.734375 L 101.015625 -129.328125 C 109.359375 -133.691406 117.550781 -139.101562 125.59375 -145.5625 C 133.632812 -152.019531 140.585938 -158.773438 146.453125 -165.828125 C 152.316406 -172.878906 156.535156 -179.78125 159.109375 -186.53125 C 161.691406 -193.28125 161.691406 -199.1875 159.109375 -204.25 C 156.535156 -209.320312 150.828125 -213.097656 141.984375 -215.578125 C 133.140625 -218.066406 120.273438 -218.613281 103.390625 -217.21875 C 99.816406 -216.820312 95.25 -215.726562 89.6875 -213.9375 C 84.125 -212.15625 78.066406 -209.972656 71.515625 -207.390625 C 64.960938 -204.804688 58.257812 -202.125 51.40625 -199.34375 C 44.550781 -196.5625 38.039062 -194.023438 31.875 -191.734375 C 25.71875 -189.453125 20.253906 -187.765625 15.484375 -186.671875 C 10.722656 -185.585938 7.25 -185.441406 5.0625 -186.234375 C 5.65625 -189.609375 7.046875 -192.632812 9.234375 -195.3125 C 11.421875 -198 14.050781 -200.4375 17.125 -202.625 C 20.207031 -204.8125 23.4375 -206.695312 26.8125 -208.28125 C 30.195312 -209.875 33.378906 -211.164062 36.359375 -212.15625 C 48.472656 -216.125 58.898438 -219.5 67.640625 -222.28125 C 76.378906 -225.0625 84.96875 -227.144531 93.40625 -228.53125 C 101.851562 -229.925781 110.84375 -230.570312 120.375 -230.46875 C 129.914062 -230.375 141.539062 -229.4375 155.25 -227.65625 C 166.375 -224.875 174.070312 -221.097656 178.34375 -216.328125 C 182.613281 -211.554688 184.445312 -206.191406 183.84375 -200.234375 C 183.25 -194.273438 180.765625 -187.96875 176.390625 -181.3125 C 172.023438 -174.65625 166.710938 -168 160.453125 -161.34375 C 154.203125 -154.695312 147.453125 -148.191406 140.203125 -141.828125 C 132.953125 -135.472656 126.242188 -129.710938 120.078125 -124.546875 C 113.921875 -119.390625 108.804688 -114.921875 104.734375 -111.140625 C 100.660156 -107.367188 98.523438 -104.785156 98.328125 -103.390625 L 87.90625 -10.421875 L 86.109375 -8.046875 C 85.117188 -6.648438 83.878906 -5.207031 82.390625 -3.71875 C 80.898438 -2.226562 79.210938 -0.988281 77.328125 0 C 75.441406 0.988281 73.800781 0.988281 72.40625 0 Z M 72.40625 -87.90625 "/></g></g><g style="fill:rgb(21.958923%,71.369934%,100%);fill-opacity:1;"><g transform="translate(113.877719, 322.786511)"><path style="stroke:none;" d="M 108.765625 -10.421875 C 109.160156 -24.128906 109.007812 -37.882812 108.3125 -51.6875 C 107.613281 -65.5 106.816406 -79.304688 105.921875 -93.109375 C 105.035156 -106.921875 104.242188 -120.726562 103.546875 -134.53125 C 102.847656 -148.34375 102.796875 -162.097656 103.390625 -175.796875 C 101.210938 -175.203125 97.835938 -174.359375 93.265625 -173.265625 C 88.691406 -172.179688 83.523438 -170.941406 77.765625 -169.546875 C 72.003906 -168.160156 65.894531 -166.71875 59.4375 -165.21875 C 52.988281 -163.726562 46.882812 -162.285156 41.125 -160.890625 C 35.363281 -159.503906 30.195312 -158.265625 25.625 -157.171875 C 21.050781 -156.085938 17.675781 -155.347656 15.5 -154.953125 C 12.71875 -154.347656 9.984375 -154.691406 7.296875 -155.984375 C 4.617188 -157.273438 2.1875 -158.71875 0 -160.3125 L 10.421875 -170.4375 C 41.816406 -173.414062 72.707031 -179.523438 103.09375 -188.765625 C 133.488281 -198.003906 162.890625 -209.175781 191.296875 -222.28125 L 206.796875 -222.28125 C 207.785156 -220.695312 207.832031 -219.007812 206.9375 -217.21875 C 206.050781 -215.4375 204.8125 -213.800781 203.21875 -212.3125 C 201.625 -210.820312 200.035156 -209.476562 198.453125 -208.28125 L 196.359375 -206.796875 L 124.25 -180.875 C 124.050781 -180.875 123.898438 -178.488281 123.796875 -173.71875 C 123.703125 -168.945312 123.65625 -163.285156 123.65625 -156.734375 C 123.65625 -150.179688 123.703125 -143.378906 123.796875 -136.328125 C 123.898438 -129.273438 124.050781 -123.460938 124.25 -118.890625 C 124.25 -117.296875 124.398438 -113.816406 124.703125 -108.453125 C 125.003906 -103.097656 125.300781 -96.894531 125.59375 -89.84375 C 125.894531 -82.789062 126.242188 -75.289062 126.640625 -67.34375 C 127.035156 -59.394531 127.429688 -51.84375 127.828125 -44.6875 C 128.222656 -37.539062 128.519531 -31.332031 128.71875 -26.0625 C 128.914062 -20.800781 129.117188 -17.28125 129.328125 -15.5 C 129.328125 -12.113281 128.378906 -9.03125 126.484375 -6.25 C 124.597656 -3.46875 122.460938 -1.582031 120.078125 -0.59375 C 117.691406 0.394531 115.359375 0.242188 113.078125 -1.046875 C 110.796875 -2.335938 109.359375 -5.460938 108.765625 -10.421875 Z M 108.765625 -10.421875 "/></g></g></g></svg>